<?xml version="1.0" encoding="UTF-8"?>
<svg width="72.467mm" height="20.977mm" version="1.1" viewBox="0 0 72.467 20.977" xmlns="http://www.w3.org/2000/svg" xmlns:cc="http://creativecommons.org/ns#" xmlns:dc="http://purl.org/dc/elements/1.1/" xmlns:rdf="http://www.w3.org/1999/02/22-rdf-syntax-ns#">
 <metadata>
  <rdf:RDF>
   <cc:Work rdf:about="">
    <dc:format>image/svg+xml</dc:format>
    <dc:type rdf:resource="http://purl.org/dc/dcmitype/StillImage"/>
    <dc:title/>
   </cc:Work>
  </rdf:RDF>
 </metadata>
 <g transform="translate(-49.293 -142.39)">
  <path id="logosvg" d="m78.619 156.77c0.58264-0.58264-1.5364-0.61074-2.1245-1.2201-1.6502-1.71-1.559-4.6557 0.19331-6.2388 0.8956-0.80915 1.7142-1.1197 2.9647-1.125 0.85611-4e-3 1.2074 0.0653 1.7781 0.34861l0.71124 0.35309 0.04089 1.3158c0.04787 1.5404-0.02455 1.5978-1.0387 0.82375-1.088-0.83052-1.9809-0.84206-2.8574-0.0369-1.1033 1.0135-0.83274 2.7439 0.54084 3.4586 0.75973 0.39529 1.41 0.25178 2.4102-0.53197 0.87563-0.68612 0.97526-0.59716 0.97526 0.8708 0 1.2103-0.01884 1.2893-0.3611 1.5136-0.40388 0.26463-1.7959 0.62544-2.3416 0.60695-0.19559-7e-3 -1.1053 0.0757-0.89126-0.13827zm2.5627-0.62802 0.60455-0.24384v-1.8125l-0.64836 0.45701c-0.54641 0.38513-0.77577 0.45699-1.4587 0.45699-1.4785 0-2.4449-0.98483-2.4449-2.4914 0-1.8447 1.7161-3.0291 3.381-2.3334 0.28981 0.1211 0.61996 0.4413 0.84892 0.52266l0.322 0.30253v-1.8556l-0.60101-0.27056c-0.40943-0.18428-0.91953-0.2698-1.6003-0.26821-0.83562 3e-3 -1.1233 0.0707-1.7565 0.4195-2.0955 1.1544-2.7738 3.7815-1.4704 5.6948 0.42034 0.61701 1.4958 1.4116 2.2084 1.6316 0.60858 0.18794 1.883 0.0858 2.6153-0.20955zm11.049 0.59098c-1.3923-0.35304-2.7211-1.5839-3.0571-2.8318-0.22964-0.85281-0.10938-2.6175 0.22532-3.3064 0.38172-0.78571 1.3644-1.7318 2.1694-2.0887 1.0261-0.4549 2.7156-0.4281 3.6634 0.0581 0.98941 0.50758 1.9594 1.5838 2.2698 2.5184 0.3253 0.97938 0.24443 2.5412-0.17361 3.3528-0.93004 1.8058-3.1284 2.7967-5.0972 2.2975zm2.3489-0.47223c2.9028-0.9375 3.6604-4.6787 1.3579-6.7055-2.5356-2.2319-6.5181-0.42847-6.5359 2.9598-9e-3 1.7236 1.0169 3.1468 2.6841 3.723 0.916 0.31663 1.5652 0.32253 2.4939 0.0225zm-2.1956-1.4462c-1.0068-0.47847-1.4936-1.2324-1.4936-2.3132 0-1.7752 1.7034-2.9669 3.3447-2.3401 1.4881 0.5683 2.0606 2.4633 1.1517 3.812-0.63724 0.94559-1.9874 1.3238-3.0029 0.84127zm1.9241-0.45209c2.0004-1.0205 1.0478-4.2358-1.167-3.9388-2.0505 0.27504-2.5272 3.0495-0.68318 3.976 0.64655 0.32483 1.1607 0.31448 1.8501-0.0373zm15.494 2.3771c-1.9807-0.56002-3.1714-2.146-3.1714-4.2244 0-1.7764 0.85662-3.1649 2.4264-3.9329 1.0594-0.51834 2.6098-0.54874 3.6681-0.0719 2.6917 1.2127 3.4726 4.6976 1.5355 6.8523-1.1176 1.2431-2.9407 1.8061-4.4586 1.377zm2.8016-0.64249c0.84757-0.43241 1.4268-0.96367 1.8668-1.7121 0.34114-0.58031 0.38824-0.80775 0.38716-1.8698-7.9e-4 -0.8831-0.0687-1.3332-0.25159-1.6695-1.0219-1.8792-3.114-2.7354-4.9706-2.0344-0.92284 0.34841-1.9061 1.2211-2.29 2.0325-0.56366 1.1913-0.43752 2.783 0.30719 3.8762 0.42031 0.61695 1.4957 1.4116 2.2084 1.6317 0.68419 0.21135 2.084 0.0814 2.7427-0.25463zm-2.4241-1.1619c-0.48599-0.15404-1.1677-0.77017-1.45-1.3105-0.11037-0.21127-0.20067-0.71774-0.20067-1.1255 0-2.434 3.0098-3.4587 4.4242-1.5061 0.34486 0.47607 0.41225 0.70742 0.41225 1.4153 0 1.051-0.3079 1.7311-0.98712 2.1806-0.58089 0.38442-1.5812 0.54198-2.1986 0.34626zm1.6111-0.49458c1.3929-0.7203 1.6554-2.3944 0.54555-3.4795-1.4546-1.4221-3.8943 0.10187-3.3531 2.0944 0.34552 1.2721 1.7173 1.9488 2.8075 1.385zm5.7202 2.2719c-0.34086-0.10634-0.78138-0.34211-0.97894-0.52393-0.48094-0.44262-0.88369-1.3486-0.88752-1.9965-3e-3 -0.49141 0.0338-0.53758 0.5303-0.66699 0.29339-0.0765 0.7706-0.18156 1.0605-0.2335 0.49443-0.0886 0.53246-0.0693 0.6144 0.31139 0.15639 0.72652 0.34119 1.0459 0.60516 1.0459 0.3501 0 0.60049-0.27414 0.60049-0.65747 0-0.25124-0.21149-0.41928-1.0313-0.8193-1.2397-0.60492-1.4055-0.73155-1.7951-1.3707-0.57353-0.94084-0.25397-2.4528 0.65522-3.1003 0.56561-0.40275 1.5548-0.63508 2.256-0.52993 0.74934 0.11236 1.6059 0.7181 1.9687 1.3922 0.33229 0.61741-0.24449 0.25003-0.79296 1.3129l-0.73583 0.4005-0.37966-0.46516c-0.29752-0.36455-0.44705-0.44379-0.69116-0.36632-0.44747 0.14203-0.281 0.30073 0.87633 0.83545 1.5671 0.72403 2.2365 1.7681 2.0102 3.1352-0.19048 1.1505-0.90363 1.9824-1.9711 2.2994-0.84425 0.25072-1.1019 0.25032-1.9136-3e-3zm2.0534-0.48414c1.3838-0.62849 1.8973-2.389 1.0457-3.5849-0.21576-0.303-0.71744-0.63873-1.508-1.0092-1.0947-0.51297-1.1847-0.58732-1.1847-0.97811 0-0.78023 1.2039-0.94626 1.5967-0.22021l0.18141 0.33528 0.61795-0.38801 0.61795-0.38799-0.47348-0.53927c-0.76974-0.8767-1.7526-1.1402-2.7229-0.73017-1.0222 0.43201-1.6327 1.4942-1.375 2.3925 0.1876 0.65413 0.65317 1.0855 1.7526 1.6237 1.2534 0.61359 1.3695 0.71726 1.3695 1.2225 0 0.6082-0.22327 0.93289-0.71584 1.0411-0.59999 0.13179-1.0944-0.21735-1.2145-0.85772-0.0705-0.37603-0.15313-0.4861-0.3267-0.4354-0.12776 0.0373-0.4718 0.11028-0.76452 0.16216-0.4878 0.0864-0.52493 0.12565-0.44487 0.4699 0.18472 0.79417 0.68966 1.492 1.3195 1.8236 0.75307 0.39645 1.4477 0.41523 2.2292 0.0603zm-36.213-3.7285v-4.2828l1.6003 0.0573c1.2942 0.0463 1.7136 0.11665 2.1929 0.36774 0.88909 0.46583 1.2407 1.0523 1.3041 2.1753 0.05841 1.0338-0.26048 1.9089-0.84469 2.3181-0.2995 0.20979-0.2901 0.23026 0.78046 1.6993 0.59598 0.81782 1.0836 1.5906 1.0836 1.7174 0 0.19537-0.19454 0.23048-1.2765 0.23048h-1.2765l-1.4299-2.0361v2.0361h-2.1337zm1.8492 2.7787c0-0.94025 0.03097-1.0713 0.2435-1.0304 0.13393 0.0259 0.566 0.50951 0.96017 1.0749l0.71667 1.028 0.89744 3e-3c0.68019 3e-3 0.87175-0.0406 0.79131-0.17539-0.05837-0.0978-0.51023-0.73094-1.0041-1.407-0.4939-0.67606-0.89731-1.3162-0.89648-1.4225 7.94e-4 -0.10631 0.22481-0.41026 0.49772-0.67546 0.83784-0.81407 0.97182-1.9325 0.35171-2.9359-0.44359-0.71774-1.1336-0.94247-2.7357-1.0382l-1.3869-0.0512v7.708h1.5647zm0.02877-4.2214 0.04235-0.88906 0.46623 0.0214c0.62268 0.0286 0.88513 0.27393 0.88513 0.82746 0 0.5728-1.5811 0.92925-0.97816 0.92925h-0.45789zm0.94384 0.0517c0.04746-0.33565-0.16532-0.57867-0.51031-0.5829-0.10944 0-0.17781 0.19304-0.17781 0.50556 0 0.44522 0.03943 0.50218 0.32006 0.46231 0.21211-0.0301 0.33625-0.15997 0.36806-0.38497zm12.256 2.0363v-3.6376l0.36913-0.62986c0.2162-0.36894 0.4735-0.6299 0.62104-0.6299 0.13958 0 1.1008 0.89842 2.1558 2.0149l1.9039 2.0148 0.0711-1.9793 0.0711-1.9793 1.1024-0.0416 1.1024-0.0415v6.8665l-0.45998 0.76904c-0.26185 0.43781-0.56185 0.76904-0.6965 0.76904-0.13009 0-0.4449-0.24006-0.69957-0.53343-0.25467-0.2934-1.1094-1.2056-1.8995-2.027l-1.4365-1.4936 0.0441 1.77c0.0626 2.5146 0.10578 2.4263-1.1848 2.4263h-1.0641zm1.8492 1.0855c0-1.4407 0.0524-2.1577 0.16259-2.2258 0.0985-0.0608 0.94487 0.72128 2.1461 1.9831 1.0909 1.146 2.0264 2.0836 2.0788 2.0836 0.0525 0 0.27093-0.29067 0.48551-0.64593l0.39014-0.6459v-6.105h-1.5647v2.1337c0 2.0058-0.0163 2.1337-0.27185 2.1337-0.14952 0-0.4467-0.20801-0.66041-0.46228-0.21371-0.25429-1.1124-1.2181-1.9972-2.1419l-1.6086-1.6796-0.36255 0.57433c-0.36144 0.57255-0.88334 0.62619-0.36255 3.8488v3.2745h1.5647zm-34.615 8.1756c-1.9621-1.2488-4.4856-2.0359-6.9387-2.1643-0.84333-0.0441-1.566-0.13308-1.606-0.19777-0.0971-0.15716-1.2751 0.31708-2.1978 0.88477-0.79092 0.48664-1.1647 0.45637-1.2454-0.10092-0.0215-0.14848 0.27648-1.9022 0.66217-3.8973l0.70127-3.6273 0.87376-0.80629c1.6263-1.5007 4.0376-2.3968 6.436-2.3918 1.9878 4e-3 4.482 0.65641 4.5921 1.2009 0.0323 0.15963 0.32532 2.4666 0.65119 5.1266l0.5925 4.8364-0.53034 0.88905c-0.3096 0.51898-0.62704 0.88752-0.76266 0.88535-0.12776-3e-3 -0.68038-0.2889-1.228-0.63749zm1.6714-0.48234c0.21515-0.38309 0.3927-0.84711 0.39455-1.0312 6e-3 -0.61502-1.0297-9.0073-1.1509-9.3241-0.0869-0.22723-0.38289-0.3942-1.0862-0.61294-2.8445-0.88458-5.6913-0.55633-8.094 0.93327-1.1107 0.6886-2.1963 1.7639-2.1787 2.1581 7e-3 0.16431 0.0605 0.11734 0.1527-0.13488 0.3-0.82064 2.5753-2.1987 4.4495-2.6948 1.7932-0.47471 4.8196-0.30358 6.189 0.34994 0.31984 0.15267 0.38441 0.31155 0.53253 1.3105 0.31292 2.1105 0.22119 2.5366-0.42085 1.9547-0.16264-0.14737-0.99188-0.39658-2.0327-0.61092-0.96693-0.19907-1.7445-0.34907-1.728-0.33327 0.67567 0.64484 1.7885 1.3215 2.2994 1.3981 0.3429 0.0514 0.68884 0.17227 0.76876 0.26858 0.19949 0.24035 1.3602 4.9196 1.2481 5.0316-0.0495 0.0496-0.74617-0.11023-1.548-0.35505-2.0822-0.63574-3.3574-0.79586-5.5919-0.70218l-1.9115 0.0801-0.0239-0.94826c-0.0152-0.60375-0.0443-0.75158-0.0802-0.40688-0.0363 0.34925-0.1414 0.56782-0.29614 0.61587-0.13194 0.041-0.7672 0.3369-1.4117 0.6576s-1.2168 0.53816-1.2717 0.48318c-0.055-0.055 0.01-0.91453 0.14375-1.9102 0.13402-0.99568 0.23643-1.8743 0.22758-1.9525-9e-3 -0.0782-0.22299 0.91392-0.47585 2.2048-0.25287 1.2909-0.4158 2.3992-0.36208 2.4629 0.0537 0.0637 0.39498-0.0727 0.75834-0.30315 0.36337-0.23046 1.0529-0.56571 1.5324-0.74499 0.80756-0.30202 0.88455-0.30851 1.0458-0.088 0.1404 0.19201 0.42168 0.23799 1.4559 0.23799 2.1091 0 4.5768 0.72641 6.7251 1.9796 0.66428 0.38753 1.2398 0.70869 1.2789 0.71369 0.0391 5e-3 0.24715-0.30433 0.4623-0.68739zm-1.0313-1.7958c0-0.3325-1.0749-4.2853-1.1851-4.3582-0.0782-0.0517-0.40454-0.1334-0.7252-0.1815-0.41418-0.0621-0.8708-0.31612-1.5768-0.8772-1.0745-0.85397-1.2901-1.1943-0.75673-1.1943 0.50006 0 3.8521 0.70057 4.1495 0.86723 0.21781 0.12205 0.24863 0.10348 0.18495-0.11145-0.042-0.14184-0.11991-0.72196-0.17306-1.2892l-0.0966-1.0313-0.94179-0.30056c-1.3427-0.42858-3.5527-0.52126-4.8912-0.20514-1.3406 0.31658-3.1345 1.1994-3.9868 1.9621l-0.67746 0.60614-0.35218 2.3471c-0.1937 1.2909-0.38666 2.5539-0.42881 2.8066l-0.0766 0.45958 1.0372-0.50602c0.57048-0.27829 1.1332-0.55573 1.2506-0.61653 0.11736-0.0608 0.24538-0.31448 0.2845-0.56372 0.14722-0.93803 0.51093-0.38576 0.55205 0.83825l0.0167 0.49787 2.033-0.0483c2.1923-0.052 3.9482 0.1683 5.3641 0.67315 0.8562 0.30528 0.99573 0.33684 0.99573 0.22532zm-11.286-4.6553c-0.0395-0.0978-0.0718-0.0177-0.0718 0.17782 0 0.19558 0.0323 0.27559 0.0718 0.1778 0.0395-0.0978 0.0395-0.25781 0-0.35562zm0.14225-0.71123c-0.0395-0.0978-0.0717-0.0177-0.0717 0.1778 0 0.19561 0.0323 0.27562 0.0717 0.17783 0.0395-0.0978 0.0395-0.25784 0-0.35563zm-4.992 1.1836-0.54583-0.55898 0.0764-1.468c0.042-0.80743 0.14374-1.6601 0.226-1.8948 0.0823-0.23468 0.29157-0.83555 0.46514-1.3352 0.63766-1.8357 2.8957-4.6196 4.3458-5.3581 0.29895-0.15221 0.58779-0.34438 0.64187-0.42701 0.20433-0.31223 2.6605-1.356 3.9766-1.6898 0.76307-0.19357 2.0797-0.39242 2.9722-0.44889 1.4207-0.0899 1.6224-0.0738 1.7803 0.14211 0.11333 0.15499 0.21192 0.1887 0.27123 0.0927 0.15111-0.24451 1.0855-0.1742 2.5196 0.1896 1.5308 0.3883 3.6136 1.2902 3.74 1.6194 0.0468 0.12187 0.11745 0.57896 0.15705 1.0157l0.072 0.79415-1.6073 2.1337c-1.8183 2.4139-1.7066 2.3543-3.2147 1.7138-2.4683-1.0484-5.1633-1.0013-7.6357 0.1334-1.9791 0.90832-3.4641 2.3672-4.1631 4.0898l-0.38885 0.95834-1.2806 0.42857c-0.70431 0.23572-1.4114 0.42858-1.5714 0.42858-0.15996 0-0.53646-0.25157-0.83667-0.55899zm2.2483-0.2717c1.0545-0.35626 1.1331-0.41177 1.3411-0.94742 0.91941-2.3678 3.0574-4.2247 5.768-5.0098 2.1277-0.61627 5.0272-0.40629 7.1215 0.5157 0.38452 0.16928 0.74475 0.25752 0.80052 0.19608 0.0558-0.0614 0.74934-0.98623 1.5413-2.0552 1.1816-1.5948 1.4399-2.0329 1.4399-2.4421 0-0.27424-0.0401-0.60304-0.089-0.73065-0.19202-0.50038-2.6877-1.5066-4.5692-1.8422-0.86051-0.15349-1.0574-0.15202-1.191 9e-3 -0.21342 0.25714-0.64358 0.24526-0.7456-0.0206-0.16946-0.44159-3.097-0.17307-5.1406 0.47151-1.3632 0.42995-2.7342 1.109-2.9128 1.4427-0.0906 0.16936-0.24047 0.28151-0.33297 0.24923-0.42111-0.14689-2.6517 1.9081-3.6307 3.345-0.62837 0.92223-1.3025 2.3817-1.3026 2.8202-7e-5 0.1995-0.0659 0.42852-0.14626 0.50887-0.0804 0.0804-0.2162 0.73864-0.30182 1.4628l-0.15567 1.3166 0.54406 0.55716c0.29923 0.30644 0.61108 0.55142 0.69299 0.54441 0.0819-7e-3 0.65299-0.18304 1.2691-0.39116z" image-rendering="auto" stroke="#000" stroke-width=".64505"/>
 </g>
</svg>
